<?xml version="1.0" ?><svg id="Layer_1" style="enable-background:new 0 0 128 128;" version="1.1" viewBox="0 0 128 128" xml:space="preserve" xmlns="http://www.w3.org/2000/svg" xmlns:xlink="http://www.w3.org/1999/xlink"><style type="text/css">
	.st0{fill:#FFFFFF;}
	.st1{fill:#444B54;}
	.st2{fill:#DFE8F4;}
	.st3{fill:#6F4986;}
	.st4{fill:#C0E7FF;}
	.st5{fill:#71C2FF;}
	.st6{fill:#FFEC7B;}
	.st7{fill:#EFC71D;}
	.st8{fill:#8E6DA5;}
	.st9{fill:#D3D8DD;}
	.st10{fill:#FF697D;}
	.st11{fill:#C95065;}
	.st12{fill:#ADF9D2;}
	.st13{fill:#5A3475;}
	.st14{fill:#00D6C6;}
	.st15{fill:#FF5576;}
	.st16{fill:#FFA9BE;}
	.st17{fill:#B6BCC1;}
	.st18{fill:#71BDE2;}
</style><g><path class="st0" d="M13.2,57.6l34.3-34.3c3.5-3.5,9.2-3.5,12.7,0l0,0c3.5,3.5,3.5,9.2,0,12.7l-20,20H114v16H40.3l20,20   c3.5,3.5,3.5,9.2,0,12.7h0c-3.5,3.5-9.2,3.5-12.7,0L13.2,70.4C9.7,66.8,9.7,61.2,13.2,57.6z"/><circle class="st1" cx="114" cy="56" r="3"/><path class="st1" d="M53.9,110.3c-3.1,0-6.1-1.2-8.5-3.5L11.1,72.5c-2.3-2.3-3.5-5.3-3.5-8.5s1.2-6.2,3.5-8.5l34.3-34.3   c4.7-4.7,12.3-4.7,17,0c2.3,2.3,3.5,5.3,3.5,8.5s-1.2,6.2-3.5,8.5L47.6,53H94c1.7,0,3,1.3,3,3s-1.3,3-3,3H40.3   c-1.2,0-2.3-0.7-2.8-1.9s-0.2-2.4,0.7-3.3l20-20c2.3-2.3,2.3-6.1,0-8.5c-2.3-2.3-6.1-2.3-8.5,0L15.3,59.8c-1.1,1.1-1.8,2.6-1.8,4.2   s0.6,3.1,1.8,4.2l34.3,34.3c2.3,2.3,6.1,2.3,8.5,0c2.3-2.3,2.3-6.1,0-8.5l-20-20c-0.9-0.9-1.1-2.1-0.7-3.3s1.6-1.9,2.8-1.9H114   c1.7,0,3,1.3,3,3s-1.3,3-3,3H47.6l14.9,14.9c2.3,2.3,3.5,5.3,3.5,8.5s-1.2,6.2-3.5,8.5C60.1,109.2,57,110.3,53.9,110.3z"/></g></svg>