<svg height="451pt" viewBox="0 -43 451.76 451" width="451pt" xmlns="http://www.w3.org/2000/svg"><path d="m355.144531 105.714844c-32.753906-32.023438-124.460937 8.664062-156.484375 41.417968-32.023437 32.753907-31.429687 85.265626 1.320313 117.285157 32.753906 32.023437 85.265625 31.429687 117.289062-1.320313 10.332031-10.566406 21.34375-27.367187 30.429688-46.347656l7.074219-16.261719c14.21875-36.222656 19.617187-75.957031.371093-94.773437zm0 0" fill="#87796f"/><path d="m357.242188 103.570312c-20.792969-20.328124-60.019532-11.410156-81.554688-4.289062-30.449219 10.074219-62.265625 28.460938-79.171875 45.75-16.046875 16.414062-24.742187 38.097656-24.484375 61.050781.257812 22.957031 9.441406 44.433594 25.855469 60.480469 16.175781 15.816406 37.46875 24.492188 60.050781 24.492188.332031 0 .664062-.003907.996094-.007813 22.953125-.257813 44.433594-9.441406 60.480468-25.855469 10.484376-10.722656 21.78125-27.910156 31.035157-47.246094l7.078125-16.265624c.015625-.03125.027344-.066407.039062-.101563 25.015625-63.714844 8.105469-89.765625-.324218-98.007813zm-5.238282 95.769532-7.015625 16.117187c-8.933593 18.667969-19.816406 35.269531-29.863281 45.539063-30.816406 31.519531-81.53125 32.089844-113.046875 1.277344-15.269531-14.929688-23.808594-34.90625-24.046875-56.257813-.242188-21.351563 7.847656-41.519531 22.773438-56.785156 16.296874-16.671875 47.148437-34.453125 76.765624-44.25 17.660157-5.839844 31.554688-7.996094 42.457032-7.996094 18.210937 0 28.050781 6.011719 33.023437 10.875 15.765625 15.417969 15.375 49.617187-1.046875 91.480469zm0 0" fill="#3a312a"/><path d="m185.46875 137.898438c-88.351562 0-160.011719 58.894531-160.351562 131.636718h320.703124c-.339843-72.742187-72.003906-131.636718-160.351562-131.636718zm0 0" fill="#d7e057"/><path d="m185.46875 134.898438c-89.726562 0-163.003906 60.390624-163.351562 134.625-.003907.796874.308593 1.5625.871093 2.128906.566407.566406 1.328125.882812 2.128907.882812h320.703124c.796876 0 1.5625-.316406 2.128907-.882812.5625-.566406.875-1.332032.871093-2.128906-.347656-74.234376-73.628906-134.625-163.351562-134.625zm-157.296875 131.636718c2.285156-69.546875 72.09375-125.636718 157.292969-125.636718 85.207031 0 155.011718 56.089843 157.296875 125.636718zm0 0" fill="#3a312a"/><path d="m209.515625 190.183594-1.707031-5.046875c-1.785156-5.265625-8.597656-6.625-12.265625-2.449219l-3.515625 4.003906c-3.667969 4.179688-1.4375 10.757813 4.011718 11.847656l5.226563 1.042969c5.449219 1.089844 10.035156-4.132812 8.25-9.398437zm0 0" fill="#f16c7a"/><path d="m212.359375 189.222656-1.710937-5.046875c-1.183594-3.5-4.054688-6.019531-7.679688-6.746093-3.640625-.726563-7.242188.503906-9.679688 3.28125l-3.515624 4.003906c-2.441407 2.777344-3.1875 6.523437-2 10.023437 1.183593 3.5 4.050781 6.019531 7.675781 6.742188l5.226562 1.042969c.683594.136718 1.371094.207031 2.046875.207031 2.902344 0 5.65625-1.234375 7.632813-3.484375 2.441406-2.777344 3.1875-6.523438 2.003906-10.023438zm-6.511719 6.0625c-1.003906 1.144532-2.5 1.652344-3.996094 1.355469l-5.226562-1.042969c-1.496094-.296875-2.679688-1.339844-3.171875-2.785156-.488281-1.445312-.179687-2.992188.828125-4.140625l3.515625-4.003906c.816406-.929688 1.953125-1.4375 3.152344-1.4375.277343 0 .5625.027343.84375.085937 1.496093.296875 2.683593 1.339844 3.171875 2.785156l1.710937 5.046876c.488281 1.441406.179688 2.992187-.828125 4.136718zm0 0" fill="#3a312a"/><path d="m429.625 148.445312c-15.710938-7.097656-34.195312-.117187-41.292969 15.589844-8.535156 18.890625-24.210937 34.519532-43.011719 42.886719-15.0625 6.703125-32.039062 8.828125-48.242187 6.296875l-17.359375-4.664062c-9.605469-3.742188-18.648438-9.28125-26.316406-16.167969-12.820313-11.519531-32.550782-10.464844-44.074219 2.359375-11.519531 12.820312-10.460937 32.554687 2.359375 44.074218 14.773438 13.269532 32.496094 23.664063 51.261719 30.0625 25.054687 8.539063 52.429687 9.996094 78.375 4.542969 10.078125-2.117187 19.949219-5.28125 29.375-9.476562 33.078125-14.71875 59.542969-41.074219 74.515625-74.210938 7.097656-15.710937.117187-34.195312-15.589844-41.292969zm0 0" fill="#f16c7a"/><path d="m430.859375 145.710938c-8.328125-3.761719-17.625-4.058594-26.171875-.828126-8.546875 3.226563-15.328125 9.589844-19.089844 17.917969-8.234375 18.222657-23.363281 33.308594-41.5 41.378907-14.269531 6.351562-30.738281 8.511718-46.398437 6.097656l-17.046875-4.578125c-9.222656-3.621094-17.953125-8.992188-25.246094-15.546875-14.03125-12.601563-35.703125-11.441406-48.308594 2.585937-6.109375 6.796875-9.203125 15.566407-8.710937 24.691407.488281 9.125 4.5 17.515624 11.296875 23.625 15.070312 13.539062 33.152344 24.140624 52.296875 30.667968 15.5 5.285156 31.8125 7.945313 48.261719 7.945313 10.566406 0 21.195312-1.097657 31.699218-3.304688 10.367188-2.179687 20.449219-5.429687 29.972656-9.671875 33.753907-15.015625 60.757813-41.902344 76.035157-75.714844 7.765625-17.195312.097656-37.496093-17.089844-45.265624zm11.621094 42.789062c-14.671875 32.46875-40.597657 58.289062-73.007813 72.710938-9.132812 4.0625-18.816406 7.1875-28.769531 9.277343-25.796875 5.421875-52.351563 3.882813-76.785156-4.445312-18.386719-6.269531-35.753907-16.453125-50.222657-29.457031-5.605468-5.035157-8.917968-11.953126-9.320312-19.476563-.402344-7.527344 2.148438-14.757813 7.1875-20.359375 5.5625-6.195312 13.265625-9.34375 21-9.34375 6.71875 0 13.460938 2.375 18.835938 7.207031 7.867187 7.066407 17.28125 12.855469 27.230468 16.730469.101563.042969.207032.074219.308594.101562l17.363281 4.664063c.105469.03125.210938.050781.316407.070313 16.832031 2.628906 34.5625.3125 49.921874-6.523438 19.464844-8.660156 35.695313-24.839844 44.527344-44.390625 3.105469-6.867187 8.695313-12.113281 15.742188-14.773437 7.050781-2.660157 14.714844-2.417969 21.582031.683593 14.171875 6.410157 20.492187 23.152344 14.089844 37.324219zm0 0" fill="#3a312a"/><path d="m3 269.535156c0 38.871094 31.511719 70.382813 70.382812 70.382813h304.996094c38.871094 0 70.382813-31.511719 70.382813-70.382813zm0 0" fill="#fce8cb"/><path d="m448.761719 266.535156h-445.761719c-1.65625 0-3 1.34375-3 3 0 40.464844 32.921875 73.382813 73.382812 73.382813h9.0625c1.65625 0 3-1.34375 3-3s-1.34375-3-3-3h-9.0625c-36.152343 0-65.742187-28.613281-67.316406-64.382813h439.628906c-1.574218 35.769532-31.167968 64.382813-67.320312 64.382813h-266.0625c-1.65625 0-3 1.34375-3 3s1.34375 3 3 3h266.0625c40.464844 0 73.386719-32.921875 73.386719-73.382813 0-1.65625-1.34375-3-3-3zm0 0" fill="#3a312a"/><path d="m131.492188 339.917969h188.777343v23.464843h-188.777343zm0 0" fill="#fce8cb"/><path d="m320.265625 336.917969h-188.773437c-1.652344 0-3 1.34375-3 3v23.460937c0 1.65625 1.347656 3 3 3h140.730468c1.65625 0 3-1.34375 3-3s-1.34375-3-3-3h-137.730468v-17.460937h182.777343v17.460937h-14.882812c-1.65625 0-3 1.34375-3 3s1.34375 3 3 3h17.882812c1.65625 0 3-1.34375 3-3v-23.460937c-.003906-1.65625-1.347656-3-3.003906-3zm0 0" fill="#3a312a"/><path d="m416.800781 272.539062c-1.582031 35.761719-31.160156 64.378907-67.320312 64.378907h28.898437c36.140625 0 65.742188-28.617188 67.320313-64.378907zm0 0" fill="#decaad"/><path d="m421.960938 65.386719c-5.886719-5.753907-14.039063-7.746094-21.503907-6.023438 1.558594-7.5-.617187-15.605469-6.503906-21.359375-9.175781-8.972656-23.902344-8.808594-32.886719.375-8.972656 9.1875-8.804687 23.910156.371094 32.882813.21875.214843.449219.417969.679688.632812l-23.890626 24.425781c6.582032 1.847657 12.324219 4.90625 16.917969 9.398438s7.777344 10.160156 9.777344 16.699219l7.375-7.546875 12.292969-12.578125 4.210937-4.3125c.21875.226562.425781.449219.644531.664062 9.179688 8.976563 23.902344 8.804688 32.886719-.371093 8.972657-9.1875 8.808594-23.914063-.371093-32.886719zm0 0" fill="#fce8cb"/><path d="m424.058594 63.242188c-5.417969-5.296876-12.710938-7.933594-20.132813-7.417969.347657-7.421875-2.453125-14.664063-7.871093-19.964844-10.351563-10.109375-27.003907-9.921875-37.128907.421875-9.625 9.859375-9.917969 25.417969-1.007812 35.621094l-21.832031 22.320312c-.742188.753906-1.03125 1.847656-.757813 2.871094.277344 1.023438 1.066406 1.828125 2.085937 2.113281 6.3125 1.773438 11.570313 4.6875 15.632813 8.65625 4.058594 3.96875 7.089844 9.160157 9.003906 15.433594.3125 1.011719 1.132813 1.785156 2.160157 2.035156.234374.058594.472656.085938.710937.085938.792969 0 1.570313-.316407 2.140625-.902344l21.824219-22.332031c10.398437 8.679687 25.949219 8.035156 35.589843-1.8125 10.117188-10.359375 9.929688-27.015625-.417968-37.128906zm-3.871094 32.933593c-7.8125 7.980469-20.664062 8.128907-28.644531.324219l-.589844-.609375c-.5625-.582031-1.339844-.910156-2.148437-.910156h-.003907c-.808593 0-1.582031.324219-2.148437.902343l-4.207032 4.308594-16.324218 16.707032c-2.179688-5.214844-5.152344-9.683594-8.878906-13.328126-3.722657-3.640624-8.257813-6.511718-13.523438-8.574218l20.546875-21.003906c.566406-.578126.875-1.363282.855469-2.171876-.019532-.808593-.363282-1.574218-.960938-2.125l-.621094-.574218c-7.980468-7.804688-8.125-20.652344-.324218-28.644532 7.8125-7.984374 20.664062-8.125 28.644531-.324218 4.957031 4.847656 7.074219 11.804687 5.664063 18.605468-.207032 1 .109374 2.039063.839843 2.753907.730469.714843 1.773438 1.003906 2.773438.777343 6.765625-1.566406 13.769531.394532 18.726562 5.242188 7.984375 7.804688 8.128907 20.652344.324219 28.644531zm0 0" fill="#3a312a"/><path d="m65.582031 22.734375c-1.949219 23.125-26.046875 26.777344-26.046875 26.777344 20.691406.972656 25.847656 28.117187 25.847656 28.117187.441407-19.355468 26.644532-28.402344 26.644532-28.402344-19.628906-1.175781-26.445313-26.492187-26.445313-26.492187zm0 0" fill="#d7e057"/><path d="m92.207031 46.230469c-17.210937-1.027344-23.664062-24.046875-23.726562-24.28125-.378907-1.402344-1.707031-2.320313-3.167969-2.199219-1.449219.132812-2.597656 1.28125-2.71875 2.734375-1.71875 20.429687-22.625 23.925781-23.507812 24.066406-1.527344.226563-2.625 1.578125-2.546876 3.121094.082032 1.539063 1.316407 2.765625 2.855469 2.839844 18.054688.851562 22.996094 25.4375 23.042969 25.683593.277344 1.425782 1.519531 2.4375 2.945312 2.4375.085938 0 .167969-.003906.253907-.011718 1.527343-.128906 2.714843-1.386719 2.75-2.917969.386719-17.019531 24.382812-25.554687 24.625-25.636719 1.351562-.472656 2.183593-1.828125 1.984375-3.246094-.195313-1.421874-1.363282-2.503906-2.789063-2.589843zm-27.132812 20.691406c-2.710938-6.261719-7.417969-13.8125-15.171875-17.753906 5.863281-2.808594 12.816406-7.824219 16.402344-16.542969 3.101562 6.140625 8.398437 13.761719 16.667968 17.445312-6.015625 3.277344-13.847656 8.808594-17.898437 16.851563zm0 0" fill="#3a312a"/><path d="m22.1875 56.695312c-1.378906 16.359376-18.425781 18.941407-18.425781 18.941407 14.636719.6875 18.285156 19.886719 18.285156 19.886719.3125-13.6875 18.84375-20.089844 18.84375-20.089844-13.882813-.832032-18.703125-18.738282-18.703125-18.738282zm0 0" fill="#d7e057"/><path d="m41.070312 72.4375c-11.535156-.6875-15.945312-16.371094-15.992187-16.527344-.375-1.40625-1.71875-2.328125-3.160156-2.203125-1.453125.128907-2.601563 1.285157-2.722657 2.734375-1.15625 13.742188-15.292968 16.136719-15.882812 16.230469-1.523438.230469-2.625 1.578125-2.542969 3.121094.078125 1.539062 1.3125 2.769531 2.855469 2.84375 12.070312.566406 15.445312 17.285156 15.476562 17.449219.269532 1.425781 1.515626 2.4375 2.945313 2.4375.082031 0 .164063-.003907.246094-.007813 1.53125-.125 2.71875-1.386719 2.753906-2.921875.261719-11.417969 16.664063-17.265625 16.824219-17.324219 1.355468-.464843 2.1875-1.824219 1.996094-3.242187-.199219-1.421875-1.371094-2.503906-2.796876-2.589844zm-19.171874 13.589844c-1.847657-3.769532-4.679688-7.894532-8.890626-10.558594 3.707032-2.082031 7.390626-5.257812 9.738282-9.832031 2.117187 3.75 5.308594 7.910156 9.882812 10.445312-3.699218 2.203125-7.976562 5.484375-10.730468 9.945313zm0 0" fill="#3a312a"/><path d="m22.1875 3.378906c-1.378906 16.359375-18.425781 18.941406-18.425781 18.941406 14.636719.691407 18.285156 19.890626 18.285156 19.890626.3125-13.691407 18.84375-20.089844 18.84375-20.089844-13.882813-.832032-18.703125-18.742188-18.703125-18.742188zm0 0" fill="#d7e057"/><path d="m41.070312 19.125c-11.535156-.691406-15.945312-16.375-15.992187-16.53125-.375-1.40625-1.71875-2.328125-3.160156-2.203125-1.453125.128906-2.601563 1.285156-2.722657 2.738281-1.15625 13.742188-15.292968 16.132813-15.882812 16.226563-1.523438.230469-2.625 1.578125-2.542969 3.121093.078125 1.539063 1.3125 2.769532 2.855469 2.84375 12.070312.566407 15.445312 17.285157 15.476562 17.449219.269532 1.425781 1.515626 2.441407 2.945313 2.441407.082031 0 .164063 0 .246094-.011719 1.53125-.125 2.71875-1.386719 2.753906-2.921875.261719-11.417969 16.664063-17.265625 16.824219-17.320313 1.355468-.46875 2.1875-1.828125 1.996094-3.246093-.199219-1.417969-1.371094-2.5-2.796876-2.585938zm-19.171874 13.589844c-1.847657-3.773438-4.679688-7.894532-8.890626-10.5625 3.707032-2.082032 7.390626-5.257813 9.738282-9.832032 2.117187 3.75 5.308594 7.910157 9.882812 10.449219-3.699218 2.199219-7.976562 5.480469-10.730468 9.945313zm0 0" fill="#3a312a"/><path d="m442.226562 134.109375-4.828124-2.25c-5.039063-2.34375-10.730469 1.644531-10.246094 7.183594l.46875 5.304687c.484375 5.539063 6.785156 8.472656 11.339844 5.28125l4.359374-3.054687c4.554688-3.191407 3.945313-10.113281-1.09375-12.464844zm0 0" fill="#f16c7a"/><path d="m449.359375 139.761719c-.324219-3.679688-2.515625-6.808594-5.867187-8.371094l-4.832032-2.25c-3.347656-1.558594-7.15625-1.222656-10.179687.898437-3.027344 2.117188-4.640625 5.582032-4.316407 9.265626l.464844 5.304687c.324219 3.683594 2.519532 6.808594 5.867188 8.371094 1.394531.648437 2.871094.96875 4.335937.96875 2.050781 0 4.082031-.628907 5.847657-1.867188l4.363281-3.058593c3.027343-2.117188 4.640625-5.582032 4.316406-9.261719zm-7.761719 4.351562-4.363281 3.058594c-1.25.875-2.824219 1.011719-4.203125.371094-1.382812-.644531-2.289062-1.9375-2.421875-3.457031l-.46875-5.308594c-.128906-1.519532.535156-2.949219 1.785156-3.828125 1.246094-.875 2.820313-1.011719 4.203125-.367188l4.828125 2.246094c1.386719.644531 2.292969 1.9375 2.425781 3.460937.132813 1.519532-.535156 2.949219-1.785156 3.824219zm0 0" fill="#3a312a"/></svg>