<?xml version="1.0" ?><svg id="Layer_1" style="enable-background:new 0 0 128 128;" version="1.1" viewBox="0 0 128 128" xml:space="preserve" xmlns="http://www.w3.org/2000/svg" xmlns:xlink="http://www.w3.org/1999/xlink"><style type="text/css">
	.st0{fill:#FFFFFF;}
	.st1{fill:#444B54;}
	.st2{fill:#DFE8F4;}
	.st3{fill:#6F4986;}
	.st4{fill:#C0E7FF;}
	.st5{fill:#71C2FF;}
	.st6{fill:#FFEC7B;}
	.st7{fill:#EFC71D;}
	.st8{fill:#8E6DA5;}
	.st9{fill:#D3D8DD;}
	.st10{fill:#FF697D;}
	.st11{fill:#C95065;}
	.st12{fill:#ADF9D2;}
	.st13{fill:#5A3475;}
	.st14{fill:#00D6C6;}
	.st15{fill:#FF5576;}
	.st16{fill:#FFA9BE;}
	.st17{fill:#B6BCC1;}
	.st18{fill:#71BDE2;}
</style><g><path class="st9" d="M109,35H19c-8.3,0-15-6.7-15-15v0c0-8.3,6.7-15,15-15h90c8.3,0,15,6.7,15,15v0C124,28.3,117.3,35,109,35z"/><path class="st9" d="M109,79H19c-8.3,0-15-6.7-15-15v0c0-8.3,6.7-15,15-15h90c8.3,0,15,6.7,15,15v0C124,72.3,117.3,79,109,79z"/><path class="st9" d="M109,123H19c-8.3,0-15-6.7-15-15v0c0-8.3,6.7-15,15-15h90c8.3,0,15,6.7,15,15v0C124,116.3,117.3,123,109,123z"/><path class="st1" d="M109,38H19C9.1,38,1,29.9,1,20S9.1,2,19,2h90c9.9,0,18,8.1,18,18S118.9,38,109,38z M19,8C12.4,8,7,13.4,7,20   s5.4,12,12,12h90c6.6,0,12-5.4,12-12s-5.4-12-12-12H19z"/><path class="st1" d="M109,82H19C9.1,82,1,73.9,1,64s8.1-18,18-18h90c9.9,0,18,8.1,18,18S118.9,82,109,82z M19,52   c-6.6,0-12,5.4-12,12s5.4,12,12,12h90c6.6,0,12-5.4,12-12s-5.4-12-12-12H19z"/><path class="st1" d="M109,126H19c-9.9,0-18-8.1-18-18s8.1-18,18-18h90c9.9,0,18,8.1,18,18S118.9,126,109,126z M19,96   c-6.6,0-12,5.4-12,12s5.4,12,12,12h90c6.6,0,12-5.4,12-12s-5.4-12-12-12H19z"/><path class="st0" d="M19,25L19,25c-2.8,0-5-2.2-5-5v0c0-2.8,2.2-5,5-5h0c2.8,0,5,2.2,5,5v0C24,22.8,21.8,25,19,25z"/><path class="st0" d="M39,25L39,25c-2.8,0-5-2.2-5-5v0c0-2.8,2.2-5,5-5h0c2.8,0,5,2.2,5,5v0C44,22.8,41.8,25,39,25z"/><path class="st0" d="M59,25L59,25c-2.8,0-5-2.2-5-5v0c0-2.8,2.2-5,5-5h0c2.8,0,5,2.2,5,5v0C64,22.8,61.8,25,59,25z"/><path class="st0" d="M19,69L19,69c-2.8,0-5-2.2-5-5v0c0-2.8,2.2-5,5-5h0c2.8,0,5,2.2,5,5v0C24,66.8,21.8,69,19,69z"/><path class="st0" d="M39,69L39,69c-2.8,0-5-2.2-5-5v0c0-2.8,2.2-5,5-5h0c2.8,0,5,2.2,5,5v0C44,66.8,41.8,69,39,69z"/><path class="st0" d="M59,69L59,69c-2.8,0-5-2.2-5-5v0c0-2.8,2.2-5,5-5h0c2.8,0,5,2.2,5,5v0C64,66.8,61.8,69,59,69z"/><path class="st0" d="M19,113L19,113c-2.8,0-5-2.2-5-5v0c0-2.8,2.2-5,5-5h0c2.8,0,5,2.2,5,5v0C24,110.8,21.8,113,19,113z"/><path class="st0" d="M39,113L39,113c-2.8,0-5-2.2-5-5v0c0-2.8,2.2-5,5-5h0c2.8,0,5,2.2,5,5v0C44,110.8,41.8,113,39,113z"/><path class="st0" d="M59,113L59,113c-2.8,0-5-2.2-5-5v0c0-2.8,2.2-5,5-5h0c2.8,0,5,2.2,5,5v0C64,110.8,61.8,113,59,113z"/></g></svg>