<svg height="468pt" viewBox="0 -10 468.0094 468" width="468pt" xmlns="http://www.w3.org/2000/svg"><path d="m468.003906 7.75c.0625-2.0625-.726562-4.058594-2.179687-5.523438-1.453125-1.464843-3.441407-2.2656245-5.503907-2.2187495h-452.632812c-2.0625-.046875-4.050781.7539065-5.503906 2.2187495-1.453125 1.464844-2.2421878 3.460938-2.17968775 5.523438v361.1875c-.07031245 2.09375.70312475 4.128906 2.14843775 5.648438 1.445312 1.519531 3.4375 2.390624 5.535156 2.421874h155.765625l-15.511719 55h-27.46875c-4.417968 0-8 3.582032-8 8 0 4.417969 3.582032 8 8 8h227.066406c4.417969 0 8-3.582031 8-8 0-4.417968-3.582031-8-8-8h-27.46875l-15.511718-55h155.761718c2.097657-.03125 4.09375-.902343 5.539063-2.421874 1.445313-1.519532 2.21875-3.554688 2.144531-5.648438zm-452 8.257812h436v270h-436zm287.449219 416h-138.902344l15.515625-55h107.871094zm148.550781-71h-436v-59h436zm0 0"/><path d="m191.15625 166.007812h-4.152344v-7.378906c0-3.300781-4.097656-4.699218-8-4.699218-3.898437 0-8 1.398437-8 4.699218v7.378906h-8.347656l17.699219-35.691406c.296875-.628906.464843-1.308594.5-2 0-3.601562-5.101563-5.949218-7.800781-5.949218-2.761719-.070313-5.308594 1.488281-6.5 3.980468l-23.097657 45.289063c-.507812.914062-.785156 1.9375-.800781 2.984375-.121094 1.425781.382812 2.839844 1.378906 3.867187.996094 1.03125 2.386719 1.582031 3.820313 1.511719h23.148437v10.625c0 3.203125 4.101563 4.800781 8 4.800781 3.902344 0 8-1.597656 8-4.800781v-10.617188h4.152344c2.402344 0 4.800781-3.402343 4.800781-7 0-3.601562-1.597656-7-4.800781-7zm0 0"/><path d="m234.453125 122.328125c-13.796875 0-24.449219 6.398437-24.449219 23.597656v26.5c0 17.199219 10.648438 23.601563 24.449219 23.601563s24.550781-6.402344 24.550781-23.601563v-26.5c0-17.199219-10.75-23.597656-24.550781-23.597656zm8.550781 50.097656c0 6.902344-3.449218 10-9.050781 10-5.597656 0-8.949219-3.097656-8.949219-10v-26.5c0-6.898437 3.351563-10 8.949219-10 5.601563 0 9.050781 3.101563 9.050781 10zm0 0"/><path d="m320.554688 166.007812h-4.550782v-7.378906c0-3.300781-3.597656-4.699218-7.5-4.699218-3.898437 0-7.5 1.398437-7.5 4.699218v7.378906h-8.949218l17.699218-35.691406c.296875-.628906.464844-1.308594.5-2 0-3.601562-5.101562-5.949218-7.800781-5.949218-2.761719-.070313-5.308594 1.488281-6.5 3.980468l-23.097656 45.289063c-.507813.914062-.785157 1.9375-.800781 2.984375-.121094 1.425781.382812 2.839844 1.378906 3.867187.996094 1.03125 2.386718 1.582031 3.820312 1.511719h23.75v10.625c0 3.203125 3.601563 4.800781 7.5 4.800781 3.902344 0 7.5-1.597656 7.5-4.800781v-10.617188h4.550782c2.398437 0 4.800781-3.402343 4.800781-7 0-3.601562-1.601563-7-4.800781-7zm0 0"/></svg>